# xmcd CD database file
#
# Track frame offsets:
#	150
#	9215
#	21885
#	34817
#	51842
#	63452
#	71250
#	82535
#	88885
#	97620
#	104527
#	119445
#
# Disc length: 1947 seconds
#
# Revision: 0
# Processed by: cddbd v1.5.2PL0 Copyright (c) Steve Scherf et al.
# Submitted via: CDex 1.70beta2
#
DISCID=8807990c
DTITLE=Various Artist - Merenmix 98 CD2
DYEAR=1998
DGENRE=Merengue
TTITLE0=Henry Hierro - Pajaro Que Pica
TTITLE1=La Artilleria - Merengue Sin Letra
TTITLE2=Kinito Mendez - El Baile Del Sua Sua
TTITLE3=Zafra Negra - Al Que Le Pique
TTITLE4=Zafra Negra - Ese Caso Lo Tenemos
TTITLE5=Zafra Negra - El Truco De Las Mujeres
TTITLE6=Henry Jimenez - Se Lo Doy
TTITLE7=Henry Jimenez - El Gordo
TTITLE8=Luis Ovalles - Fosforera
TTITLE9=El Boy From Bonao - Que Lo Diga El Boy
TTITLE10=Henry Jimenez - El Tom Tom
TTITLE11=Kinito Mendez - Radiomix
EXTD=YEAR: 1998
EXTT0=
EXTT1=
EXTT2=
EXTT3=
EXTT4=
EXTT5=
EXTT6=
EXTT7=
EXTT8=
EXTT9=
EXTT10=
EXTT11=
PLAYORDER=
